<?xml version="1.0" encoding="UTF-8" standalone="no"?>
<svg
   xmlns:dc="http://purl.org/dc/elements/1.1/"
   xmlns:cc="http://creativecommons.org/ns#"
   xmlns:rdf="http://www.w3.org/1999/02/22-rdf-syntax-ns#"
   xmlns:svg="http://www.w3.org/2000/svg"
   xmlns="http://www.w3.org/2000/svg"
   xmlns:sodipodi="http://sodipodi.sourceforge.net/DTD/sodipodi-0.dtd"
   xmlns:inkscape="http://www.inkscape.org/namespaces/inkscape"
   sodipodi:docname="heart.svg"
   inkscape:version="1.0 (4035a4fb49, 2020-05-01)"
   id="svg8"
   version="1.1"
   viewBox="0 0 210 297"
   height="297mm"
   width="210mm">
  <defs
     id="defs2" />
  <sodipodi:namedview
     inkscape:window-maximized="1"
     inkscape:window-y="-9"
     inkscape:window-x="-9"
     inkscape:window-height="1051"
     inkscape:window-width="1920"
     showgrid="false"
     inkscape:document-rotation="0"
     inkscape:current-layer="g83"
     inkscape:document-units="mm"
     inkscape:cy="560"
     inkscape:cx="400"
     inkscape:zoom="0.35"
     inkscape:pageshadow="2"
     inkscape:pageopacity="0.0"
     borderopacity="1.0"
     bordercolor="#666666"
     pagecolor="#ffffff"
     id="base" />
  <metadata
     id="metadata5">
    <rdf:RDF>
      <cc:Work
         rdf:about="">
        <dc:format>image/svg+xml</dc:format>
        <dc:type
           rdf:resource="http://purl.org/dc/dcmitype/StillImage" />
        <dc:title />
      </cc:Work>
    </rdf:RDF>
  </metadata>
  <g
     id="layer1"
     inkscape:groupmode="layer"
     inkscape:label="Layer 1">
    <g
       id="g83"
       transform="matrix(0.46452007,0,0,0.47517675,337.4644,582.20544)">
      <path
         d="m -453.43485,-883.56794 c 34.13475,-17.50574 68.8074,-36.26448 92.9273,-64.65428 25.18955,-29.64894 35.94244,-73.99398 12.59797,-104.90898 -19.60921,-25.9686 -58.65761,-35.0995 -91.91968,-27.5946 -33.26206,7.5049 -61.10796,28.8863 -82.7348,53.4454 7.07681,-30.1855 -27.32776,-59.3314 -60.58275,-56.6583 -33.25499,2.6733 -59.9375,29.569 -68.81687,59.3439 -8.87938,29.77484 -3.10198,61.63884 6.42584,91.24158 a 436.26014,403.682 0 0 0 77.22415,136.41411 142.26106,131.63758 0 0 1 19.3047,-24.95785 c 26.25469,-26.71896 61.43941,-44.16523 95.57414,-61.67098 z"
         fill="#e53e3e"
         id="path10-1"
         style="stroke-width:1.88232" />
    </g>
  </g>
</svg>
